<!DOCTYPE svg PUBLIC "-//W3C//DTD SVG 1.1//EN" "http://www.w3.org/Graphics/SVG/1.1/DTD/svg11.dtd">
<!-- Uploaded to: SVG Repo, www.svgrepo.com, Transformed by: SVG Repo Mixer Tools -->
<svg fill="#000000" height="64px" width="64px" version="1.1" id="Capa_1" xmlns="http://www.w3.org/2000/svg" xmlns:xlink="http://www.w3.org/1999/xlink" viewBox="0 0 60.013 60.013" xml:space="preserve">
<g id="SVGRepo_bgCarrier" stroke-width="0"/>
<g id="SVGRepo_tracerCarrier" stroke-linecap="round" stroke-linejoin="round"/>
<g id="SVGRepo_iconCarrier"> <path d="M11.68,12.506l-0.832-5h-2.99c-0.447-1.72-1.999-3-3.858-3c-2.206,0-4,1.794-4,4s1.794,4,4,4c1.859,0,3.411-1.28,3.858-3 h1.294l0.5,3H9.624l0.222,1.161l0,0.003c0,0,0,0,0,0l2.559,13.374l1.044,5.462h0.001l1.342,7.015 c-2.468,0.186-4.525,2.084-4.768,4.475c-0.142,1.405,0.32,2.812,1.268,3.858c0.949,1.05,2.301,1.652,3.707,1.652h2 c0,3.309,2.691,6,6,6s6-2.691,6-6h11c0,3.309,2.691,6,6,6s6-2.691,6-6h4c0.553,0,1-0.447,1-1s-0.447-1-1-1h-4.35 c-0.826-2.327-3.043-4-5.65-4s-4.824,1.673-5.65,4h-11.7c-0.826-2.327-3.043-4-5.65-4s-4.824,1.673-5.65,4H15 c-0.842,0-1.652-0.362-2.224-0.993c-0.577-0.639-0.848-1.461-0.761-2.316c0.152-1.509,1.546-2.69,3.173-2.69h0.781 c0.02,0,0.038,0,0.06,0l6.128-0.002L33,41.501v-0.001l7.145-0.002L51,41.496v-0.001l4.024-0.001c2.751,0,4.988-2.237,4.988-4.987 V12.494L11.68,12.506z M4,10.506c-1.103,0-2-0.897-2-2s0.897-2,2-2s2,0.897,2,2S5.103,10.506,4,10.506z M42,39.498v-6.991h7v6.989 L42,39.498z M24,39.503v-6.997h7v6.995L24,39.503z M13.765,23.506H22v7h-6.895L13.765,23.506z M49,21.506h-7v-7h7V21.506z M31,14.506v7h-7v-7H31z M33,23.506h7v7h-7V23.506z M51,23.506h7v7h-7V23.506z"/> </g>
</svg>